<svg width="648" height="176" viewBox="0 0 648 176" fill="none" xmlns="http://www.w3.org/2000/svg">
<path d="M0 20C0 8.9543 8.95431 0 20 0H628C639.046 0 648 8.95431 648 20V85.9461C648 95.3249 641.483 103.444 632.326 105.473L318.464 175.011C315.526 175.662 312.479 175.642 309.55 174.951L15.4123 105.632C6.38133 103.504 0 95.4439 0 86.1655V20Z" fill="#7D2222"/>
<path d="M253.867 67.2891C251.133 67.2891 249.016 68.3203 247.516 70.3828C246.016 72.4297 245.266 75.2891 245.266 78.9609C245.266 86.6016 248.133 90.4219 253.867 90.4219C256.273 90.4219 259.188 89.8203 262.609 88.6172V94.7109C259.797 95.8828 256.656 96.4688 253.188 96.4688C248.203 96.4688 244.391 94.9609 241.75 91.9453C239.109 88.9141 237.789 84.5703 237.789 78.9141C237.789 75.3516 238.438 72.2344 239.734 69.5625C241.031 66.875 242.891 64.8203 245.312 63.3984C247.75 61.9609 250.602 61.2422 253.867 61.2422C257.195 61.2422 260.539 62.0469 263.898 63.6562L261.555 69.5625C260.273 68.9531 258.984 68.4219 257.688 67.9688C256.391 67.5156 255.117 67.2891 253.867 67.2891ZM294.133 90.7734H297.953V105.398H291.531V96H269.359V69.7969H276.508V90.6328H286.961V69.7969H294.133V90.7734ZM313.258 74.3906C311.742 74.3906 310.555 74.875 309.695 75.8438C308.836 76.7969 308.344 78.1562 308.219 79.9219H318.25C318.219 78.1562 317.758 76.7969 316.867 75.8438C315.977 74.875 314.773 74.3906 313.258 74.3906ZM314.266 96.4688C310.047 96.4688 306.75 95.3047 304.375 92.9766C302 90.6484 300.812 87.3516 300.812 83.0859C300.812 78.6953 301.906 75.3047 304.094 72.9141C306.297 70.5078 309.336 69.3047 313.211 69.3047C316.914 69.3047 319.797 70.3594 321.859 72.4688C323.922 74.5781 324.953 77.4922 324.953 81.2109V84.6797H308.055C308.133 86.7109 308.734 88.2969 309.859 89.4375C310.984 90.5781 312.562 91.1484 314.594 91.1484C316.172 91.1484 317.664 90.9844 319.07 90.6562C320.477 90.3281 321.945 89.8047 323.477 89.0859V94.6172C322.227 95.2422 320.891 95.7031 319.469 96C318.047 96.3125 316.312 96.4688 314.266 96.4688ZM337.914 69.7969V79.875H347.898V69.7969H355.047V96H347.898V85.1953H337.914V96H330.766V69.7969H337.914ZM379.188 96L377.805 92.4375H377.617C376.414 93.9531 375.172 95.0078 373.891 95.6016C372.625 96.1797 370.969 96.4688 368.922 96.4688C366.406 96.4688 364.422 95.75 362.969 94.3125C361.531 92.875 360.812 90.8281 360.812 88.1719C360.812 85.3906 361.781 83.3438 363.719 82.0312C365.672 80.7031 368.609 79.9688 372.531 79.8281L377.078 79.6875V78.5391C377.078 75.8828 375.719 74.5547 373 74.5547C370.906 74.5547 368.445 75.1875 365.617 76.4531L363.25 71.625C366.266 70.0469 369.609 69.2578 373.281 69.2578C376.797 69.2578 379.492 70.0234 381.367 71.5547C383.242 73.0859 384.18 75.4141 384.18 78.5391V96H379.188ZM377.078 83.8594L374.312 83.9531C372.234 84.0156 370.688 84.3906 369.672 85.0781C368.656 85.7656 368.148 86.8125 368.148 88.2188C368.148 90.2344 369.305 91.2422 371.617 91.2422C373.273 91.2422 374.594 90.7656 375.578 89.8125C376.578 88.8594 377.078 87.5938 377.078 86.0156V83.8594Z" fill="white"/>
</svg>
